<svg width="20" height="19" viewBox="0 0 20 19" fill="none" xmlns="http://www.w3.org/2000/svg">
<rect width="20" height="19" rx="2" fill="url(#paint0_linear_11_4)"/>
<path d="M2.75852 14V5.27273H6.2017C6.8608 5.27273 7.4233 5.39062 7.8892 5.62642C8.35795 5.85937 8.71449 6.19034 8.95881 6.61932C9.20597 7.04545 9.32955 7.54687 9.32955 8.12358C9.32955 8.70312 9.20455 9.2017 8.95455 9.61932C8.70455 10.0341 8.34233 10.3523 7.8679 10.5739C7.39631 10.7955 6.82528 10.9062 6.15483 10.9062H3.84943V9.4233H5.85653C6.20881 9.4233 6.50142 9.375 6.73438 9.27841C6.96733 9.18182 7.14063 9.03693 7.25426 8.84375C7.37074 8.65057 7.42898 8.41051 7.42898 8.12358C7.42898 7.83381 7.37074 7.58949 7.25426 7.39062C7.14063 7.19176 6.96591 7.04119 6.73011 6.93892C6.49716 6.83381 6.20313 6.78125 5.84801 6.78125H4.60369V14H2.75852ZM7.47159 10.0284L9.64062 14H7.60369L5.48153 10.0284H7.47159ZM10.6335 14V5.27273H14.0767C14.7358 5.27273 15.2983 5.39062 15.7642 5.62642C16.233 5.85937 16.5895 6.19034 16.8338 6.61932C17.081 7.04545 17.2045 7.54687 17.2045 8.12358C17.2045 8.70312 17.0795 9.2017 16.8295 9.61932C16.5795 10.0341 16.2173 10.3523 15.7429 10.5739C15.2713 10.7955 14.7003 10.9062 14.0298 10.9062H11.7244V9.4233H13.7315C14.0838 9.4233 14.3764 9.375 14.6094 9.27841C14.8423 9.18182 15.0156 9.03693 15.1293 8.84375C15.2457 8.65057 15.304 8.41051 15.304 8.12358C15.304 7.83381 15.2457 7.58949 15.1293 7.39062C15.0156 7.19176 14.8409 7.04119 14.6051 6.93892C14.3722 6.83381 14.0781 6.78125 13.723 6.78125H12.4787V14H10.6335ZM15.3466 10.0284L17.5156 14H15.4787L13.3565 10.0284H15.3466Z" fill="black"/>
<defs>
<linearGradient id="paint0_linear_11_4" x1="10" y1="0" x2="10" y2="19" gradientUnits="userSpaceOnUse">
<stop/>
<stop offset="1" stop-color="white"/>
</linearGradient>
</defs>
</svg>
