<svg width="8" height="9" viewBox="0 0 8 9" fill="none" xmlns="http://www.w3.org/2000/svg">
<path d="M0.971588 8.72727C0.434995 8.72727 0 8.29228 0 7.75568V4C0 1.79086 1.79086 0 4 0H7.13636C7.61334 0 8 0.386663 8 0.863636C8 1.34061 7.61334 1.72727 7.13636 1.72727H2.94318C2.39089 1.72727 1.94318 2.17499 1.94318 2.72727C1.94318 3.27956 2.39089 3.72727 2.94318 3.72727H7.25C7.66421 3.72727 8 4.06306 8 4.47727C8 4.89149 7.66421 5.22727 7.25 5.22727H3.69318C2.72668 5.22727 1.94318 6.01077 1.94318 6.97727V7.75568C1.94318 8.29228 1.50818 8.72727 0.971588 8.72727Z" fill="#710094"/>
<circle cx="4" cy="7" r="1" fill="#710094"/>
<circle cx="7" cy="7" r="1" fill="#710094"/>
</svg>
